<svg width="14" height="14" viewBox="0 0 14 14" fill="none" xmlns="http://www.w3.org/2000/svg">
<path d="M5.51142 0.533051L3.11092 0.782726L1.09445 3.3753V4.81566L2.63079 6.50564L4.3976 6.14076L5.74193 6.40961L5.45387 7.44664L6.37565 9.11743L5.91477 10.2889L7.00278 13.4669L8.46895 13.2272L9.81328 11.71L9.92848 10.6538L10.7927 10.0008L10.6198 8.09959L12.9056 5.17397L11.484 5.37257L9.31393 1.58931L5.89552 1.35886L5.51145 0.533078L5.51142 0.533051ZM12.4115 9.27758L12.0177 9.84797L11.6511 9.86154C11.3271 10.5266 11.3066 10.9011 11.2708 11.6812L11.7461 11.8034L12.3436 10.3775L12.4115 9.27758Z" fill="#616161"/>
<path d="M4.94565 1.27246L3.62588 1.27246L1.90218 3.30353L1.98008 4.62959L3.18201 6.03875L5.04194 5.76692L6.11939 5.98239L5.91745 7.19924L6.74637 8.74903L6.45625 9.81034L7.28517 12.4214L8.56999 12.0484L9.44036 10.8879L9.68904 9.89323L10.3522 9.38399L10.1674 7.65515L11.8696 5.76692H10.9946L8.98226 2.11903L5.47826 1.90219L4.94565 1.27246ZM12.3261 9.58697L11.9457 10.2337L11.7174 10.1957C11.4577 10.7287 11.4417 10.7879 11.413 11.4131L11.7174 11.2609L12.25 10.1957L12.3261 9.58697Z" fill="white"/>
</svg>
