<svg width="16" height="16" viewBox="0 0 16 16" fill="none" xmlns="http://www.w3.org/2000/svg">
<path fill-rule="evenodd" clip-rule="evenodd" d="M7.99999 0C7.66778 0 7.39849 0.269298 7.39849 0.601507V3.21487C7.39849 3.54707 7.66778 3.81637 7.99999 3.81637C8.33219 3.81637 8.60149 3.54707 8.60149 3.21487V1.22926C12.0736 1.53372 14.797 4.44881 14.797 7.99999C14.797 11.7539 11.7539 14.797 7.99999 14.797C4.24612 14.797 1.20301 11.7539 1.20301 7.99999C1.20301 6.32317 1.80943 4.78953 2.81565 3.60411C3.03063 3.35086 2.99959 2.97127 2.74632 2.75629C2.49306 2.54132 2.11348 2.57236 1.8985 2.82561C0.714674 4.22027 0 6.02743 0 7.99999C0 12.4183 3.58171 16 7.99999 16C12.4183 16 16 12.4183 16 7.99999C16 3.58171 12.4183 0 7.99999 0ZM7.08632 8.69862L4.05852 4.47806C3.97273 4.35846 3.98614 4.19433 4.09022 4.09025C4.19429 3.98616 4.35843 3.97275 4.47802 4.05855L8.69859 7.08634C9.27793 7.50196 9.34625 8.33795 8.84209 8.84212C8.33793 9.34628 7.50193 9.27796 7.08632 8.69862Z" fill="white"/>
</svg>
