<svg width="96" height="143" viewBox="0 0 96 143" fill="none" xmlns="http://www.w3.org/2000/svg">
<path fill-rule="evenodd" clip-rule="evenodd" d="M57.3341 142.257C61.0785 142.257 57.3341 115.902 57.3341 76.6893C57.3341 37.4771 85.8324 0.257202 57.3341 0.257202C28.8358 0.257202 0 32.045 0 71.2572C0 110.469 28.8358 142.257 57.3341 142.257Z" fill="#0026DC"/>
<path fill-rule="evenodd" clip-rule="evenodd" d="M59.6195 44.5776C67.3063 44.5776 95.2705 27.6702 95.2705 17.8255C95.2705 7.98075 79.309 0 59.6195 0C39.93 0 23.9685 7.98075 23.9685 17.8255C23.9685 27.6702 51.9327 44.5776 59.6195 44.5776Z" fill="black"/>
<path d="M59.6877 139.633V43.0836" stroke="black" stroke-width="5.94183" stroke-linecap="round"/>
<path d="M41.794 103.982C45.0756 103.982 47.7358 101.322 47.7358 98.0402C47.7358 94.7587 45.0756 92.0984 41.794 92.0984C38.5124 92.0984 35.8521 94.7587 35.8521 98.0402C35.8521 101.322 38.5124 103.982 41.794 103.982Z" fill="black"/>
<path d="M20.9976 71.302C24.2791 71.302 26.9394 68.6417 26.9394 65.3602C26.9394 62.0786 24.2791 59.4183 20.9976 59.4183C17.716 59.4183 15.0557 62.0786 15.0557 65.3602C15.0557 68.6417 17.716 71.302 20.9976 71.302Z" fill="black"/>
<path d="M55 30.2572C55.5607 26.2758 59 21.2572 60 21.2572C60.9999 21.2572 64.4392 26.2758 65 30.2572C65.3163 32.503 63.2612 34.2572 60.9933 34.2572H59.0067C56.7387 34.2572 54.6837 32.503 55 30.2572Z" fill="#D9D9D9"/>
<circle cx="48.9999" cy="15.2572" r="5" fill="#D9D9D9"/>
<circle cx="70.9999" cy="15.2572" r="5" fill="#D9D9D9"/>
</svg>
